<svg width="25" height="25" viewBox="0 0 25 25" fill="none" xmlns="http://www.w3.org/2000/svg">
<path d="M9.72222 2.77783H4.16666C3.3996 2.77783 2.77777 3.39966 2.77777 4.16672V9.72228C2.77777 10.4893 3.3996 11.1112 4.16666 11.1112H9.72222C10.4893 11.1112 11.1111 10.4893 11.1111 9.72228V4.16672C11.1111 3.39966 10.4893 2.77783 9.72222 2.77783Z" fill="white"/>
<path d="M20.8333 2.77783H15.2778C14.5107 2.77783 13.8889 3.39966 13.8889 4.16672V9.72228C13.8889 10.4893 14.5107 11.1112 15.2778 11.1112H20.8333C21.6004 11.1112 22.2222 10.4893 22.2222 9.72228V4.16672C22.2222 3.39966 21.6004 2.77783 20.8333 2.77783Z" fill="white"/>
<path d="M9.72222 13.8889H4.16666C3.3996 13.8889 2.77777 14.5107 2.77777 15.2778V20.8334C2.77777 21.6004 3.3996 22.2222 4.16666 22.2222H9.72222C10.4893 22.2222 11.1111 21.6004 11.1111 20.8334V15.2778C11.1111 14.5107 10.4893 13.8889 9.72222 13.8889Z" fill="white"/>
<path d="M20.8333 13.8889H15.2778C14.5107 13.8889 13.8889 14.5107 13.8889 15.2778V20.8334C13.8889 21.6004 14.5107 22.2222 15.2778 22.2222H20.8333C21.6004 22.2222 22.2222 21.6004 22.2222 20.8334V15.2778C22.2222 14.5107 21.6004 13.8889 20.8333 13.8889Z" fill="white"/>
</svg>
